<svg width="48" height="48" viewBox="0 0 48 48" fill="none" xmlns="http://www.w3.org/2000/svg">
<rect width="48" height="48" fill="#323238"/>
<path d="M23.998 8.33301C15.164 8.33301 8 15.525 8 24.397C8 31.4929 12.584 37.5129 18.944 39.6389C19.744 39.7869 20.036 39.2909 20.036 38.8649C20.036 38.4829 20.022 37.4729 20.014 36.1329C15.564 37.1029 14.624 33.9789 14.624 33.9789C13.898 32.1229 12.848 31.6289 12.848 31.6289C11.394 30.6329 12.956 30.6529 12.956 30.6529C14.562 30.7669 15.406 32.3089 15.406 32.3089C16.834 34.7629 19.152 34.0549 20.064 33.6429C20.208 32.6049 20.622 31.8969 21.08 31.4949C17.528 31.0889 13.792 29.7109 13.792 23.557C13.792 21.803 14.416 20.369 15.44 19.245C15.274 18.839 14.726 17.205 15.596 14.995C15.596 14.995 16.94 14.563 19.996 16.641C21.272 16.285 22.64 16.107 24.002 16.101C25.36 16.109 26.73 16.285 28.008 16.643C31.062 14.565 32.404 14.997 32.404 14.997C33.276 17.209 32.728 18.841 32.564 19.247C33.59 20.371 34.208 21.805 34.208 23.559C34.208 29.7289 30.468 31.0869 26.904 31.4849C27.478 31.9809 27.99 32.9609 27.99 34.4589C27.99 36.6069 27.97 38.3389 27.97 38.8649C27.97 39.2949 28.258 39.7949 29.07 39.6369C35.42 37.5089 40 31.4909 40 24.397C40 15.525 32.836 8.33301 23.998 8.33301Z" fill="white"/>
</svg>
