<svg width="48" height="48" viewBox="0 0 48 48" fill="none" xmlns="http://www.w3.org/2000/svg">
<rect width="48" height="48" fill="#323238"/>
<path d="M11.625 8.31246C11.1625 8.38746 10.525 8.62496 10.0813 8.88121C9.51254 9.21246 8.82504 9.94371 8.51879 10.5312C8.11879 11.3125 8.03129 11.6562 8.03754 12.5625C8.03754 13.25 8.06254 13.4062 8.21254 13.8437C8.46254 14.575 8.71254 14.9687 9.27504 15.5375C9.84379 16.1 10.2313 16.35 10.9688 16.6C11.4125 16.7562 11.5563 16.775 12.2813 16.775C13.0125 16.775 13.15 16.7562 13.6188 16.5937C14.8188 16.1875 15.7813 15.275 16.25 14.1125C16.7063 12.9562 16.6563 11.8125 16.0813 10.6312C15.85 10.1375 15.7125 9.95621 15.2875 9.53121C14.7438 8.98746 14.0563 8.58746 13.375 8.40621C12.9375 8.28746 12.0688 8.24371 11.625 8.31246Z" fill="white"/>
<path d="M30.8625 17.375C29.1938 17.525 27.725 18.175 26.4813 19.3125L26.125 19.6375V19.1937C26.125 18.5562 25.9438 18.225 25.45 17.975C25.2688 17.8812 24.9375 17.875 22.325 17.8875L19.4 17.9062L19.1438 18.075C18.65 18.4 18.6875 17.45 18.6875 28.8562C18.6875 38.7312 18.6938 39.0375 18.8063 39.225C18.8688 39.3312 19.0313 39.4875 19.1625 39.5687L19.4063 39.7187L22.5188 39.7375C24.6 39.75 25.7063 39.7312 25.875 39.6875C26.2125 39.6 26.5438 39.2937 26.625 39.0125C26.6625 38.8625 26.6875 36.6625 26.6875 32.775C26.6875 26.1875 26.6688 26.525 27.0625 25.75C27.4063 25.075 28 24.5625 28.7375 24.3062C29.2 24.1375 30.0813 24.1312 30.5313 24.2812C31.2438 24.525 31.9375 25.075 32.1875 25.6125C32.5375 26.3375 32.5188 26.0375 32.5563 32.7875L32.5938 39.0437L32.775 39.275C32.875 39.4062 33.075 39.5687 33.225 39.6312C33.4813 39.75 33.6563 39.75 36.3625 39.7375L39.225 39.7187L39.45 39.5687C39.5688 39.4875 39.7375 39.3187 39.8188 39.2L39.9688 38.975L39.9875 31.7875C40.0063 24.325 39.9938 23.9187 39.7438 22.9375C39.2563 20.9937 38.0375 19.375 36.2875 18.325C34.9313 17.5125 33.0563 17.1812 30.8625 17.375Z" fill="white"/>
<path d="M9.46879 18.0249C9.09379 18.1999 8.86254 18.4374 8.69379 18.8124C8.56879 19.0937 8.56254 19.1687 8.56254 28.8124C8.56254 39.7999 8.51254 38.7749 9.07504 39.2874C9.54379 39.7187 9.55004 39.7187 12.3125 39.7187C15.0375 39.7187 14.9875 39.7249 15.4625 39.3124C15.5875 39.1999 15.7563 38.9874 15.8313 38.8499L15.9688 38.5937V28.8124V19.0312L15.8313 18.7812C15.6563 18.4499 15.3438 18.1624 15 18.0062C14.7313 17.8812 14.6 17.8749 12.25 17.8749C9.78129 17.8749 9.78129 17.8749 9.46879 18.0249Z" fill="white"/>
</svg>
